<svg width="119" height="119" viewBox="0 0 119 119" fill="none" xmlns="http://www.w3.org/2000/svg">
<path d="M78.3506 90.855L91.9886 118.112H82.9018L69.2639 90.855H49.7833L36.1454 118.112H27.0587L40.6966 90.855H16.1924C15.1483 90.855 14.1468 90.3764 13.4085 89.5245C12.6702 88.6726 12.2554 87.5171 12.2554 86.3123V9.0855H4.38127C3.33709 9.0855 2.33569 8.60689 1.59735 7.75496C0.859009 6.90303 0.444214 5.74757 0.444214 4.54275C0.444214 3.33794 0.859009 2.18247 1.59735 1.33054C2.33569 0.478611 3.33709 0 4.38127 0H114.619C115.663 0 116.664 0.478611 117.403 1.33054C118.141 2.18247 118.556 3.33794 118.556 4.54275C118.556 5.74757 118.141 6.90303 117.403 7.75496C116.664 8.60689 115.663 9.0855 114.619 9.0855H106.745V86.3123C106.745 87.5171 106.33 88.6726 105.591 89.5245C104.853 90.3764 103.852 90.855 102.808 90.855H78.3506ZM98.8705 9.0855H20.1295V81.7695H98.8705V9.0855ZM39.8147 45.4275C40.8589 45.4275 41.8603 45.9061 42.5986 46.7581C43.337 47.61 43.7518 48.7655 43.7518 49.9703V59.0558C43.7518 60.2606 43.337 61.4161 42.5986 62.268C41.8603 63.1199 40.8589 63.5985 39.8147 63.5985C38.7706 63.5985 37.7692 63.1199 37.0308 62.268C36.2925 61.4161 35.8777 60.2606 35.8777 59.0558V49.9703C35.8777 48.7655 36.2925 47.61 37.0308 46.7581C37.7692 45.9061 38.7706 45.4275 39.8147 45.4275ZM59.5 36.342C60.5442 36.342 61.5456 36.8206 62.2839 37.6726C63.0223 38.5245 63.437 39.68 63.437 40.8848V59.0558C63.437 60.2606 63.0223 61.4161 62.2839 62.268C61.5456 63.1199 60.5442 63.5985 59.5 63.5985C58.4558 63.5985 57.4544 63.1199 56.7161 62.268C55.9777 61.4161 55.5629 60.2606 55.5629 59.0558V40.8848C55.5629 39.68 55.9777 38.5245 56.7161 37.6726C57.4544 36.8206 58.4558 36.342 59.5 36.342ZM79.1853 27.2565C80.2294 27.2565 81.2308 27.7351 81.9692 28.5871C82.7075 29.439 83.1223 30.5945 83.1223 31.7993V59.0558C83.1223 60.2606 82.7075 61.4161 81.9692 62.268C81.2308 63.1199 80.2294 63.5985 79.1853 63.5985C78.1411 63.5985 77.1397 63.1199 76.4013 62.268C75.663 61.4161 75.2482 60.2606 75.2482 59.0558V31.7993C75.2482 30.5945 75.663 29.439 76.4013 28.5871C77.1397 27.7351 78.1411 27.2565 79.1853 27.2565Z" fill="#FDC92F"/>
</svg>
