<svg width="48" height="48" viewBox="0 0 48 48" fill="none" xmlns="http://www.w3.org/2000/svg">
<path d="M31.7491 36.8089L37.1723 47.6473L33.5589 47.6473L28.1357 36.8089L20.3892 36.8089L14.966 47.6473L11.3526 47.6473L16.7758 36.8089L7.0316 36.8089C6.61638 36.8089 6.21817 36.6186 5.92457 36.2798C5.63096 35.9411 5.46602 35.4816 5.46602 35.0025L5.46601 4.2939L2.33484 4.29389C1.91962 4.29389 1.5214 4.10358 1.2278 3.76481C0.934194 3.42605 0.769249 2.96659 0.769249 2.4875C0.769249 2.00842 0.934194 1.54896 1.2278 1.21019C1.5214 0.87143 1.91962 0.681114 2.33484 0.681114L46.1713 0.681117C46.5865 0.681117 46.9848 0.871433 47.2784 1.2102C47.572 1.54896 47.7369 2.00842 47.7369 2.48751C47.7369 2.96659 47.572 3.42605 47.2784 3.76482C46.9848 4.10358 46.5865 4.2939 46.1713 4.2939L43.0401 4.2939L43.0401 35.0025C43.0401 35.4816 42.8752 35.9411 42.5816 36.2798C42.288 36.6186 41.8898 36.8089 41.4746 36.8089L31.7491 36.8089ZM39.909 4.2939L8.59719 4.2939L8.59719 33.1961L39.909 33.1961L39.909 4.2939ZM16.4251 18.745C16.8404 18.745 17.2386 18.9353 17.5322 19.2741C17.8258 19.6129 17.9907 20.0723 17.9907 20.5514L17.9907 24.1642C17.9907 24.6433 17.8258 25.1027 17.5322 25.4415C17.2386 25.7803 16.8404 25.9706 16.4251 25.9706C16.0099 25.9706 15.6117 25.7803 15.3181 25.4415C15.0245 25.1027 14.8595 24.6433 14.8595 24.1642L14.8595 20.5514C14.8595 20.0723 15.0245 19.6129 15.3181 19.2741C15.6117 18.9353 16.0099 18.745 16.4251 18.745ZM24.2531 15.1322C24.6683 15.1322 25.0665 15.3226 25.3601 15.6613C25.6537 16.0001 25.8187 16.4595 25.8187 16.9386L25.8187 24.1642C25.8187 24.6433 25.6537 25.1027 25.3601 25.4415C25.0665 25.7803 24.6683 25.9706 24.2531 25.9706C23.8379 25.9706 23.4396 25.7803 23.146 25.4415C22.8524 25.1027 22.6875 24.6433 22.6875 24.1642L22.6875 16.9386C22.6875 16.4595 22.8524 16.0001 23.146 15.6613C23.4396 15.3226 23.8379 15.1322 24.2531 15.1322ZM32.081 11.5195C32.4962 11.5195 32.8945 11.7098 33.1881 12.0485C33.4817 12.3873 33.6466 12.8468 33.6466 13.3258L33.6466 24.1642C33.6466 24.6433 33.4817 25.1027 33.1881 25.4415C32.8945 25.7803 32.4962 25.9706 32.081 25.9706C31.6658 25.9706 31.2676 25.7803 30.974 25.4415C30.6804 25.1027 30.5154 24.6433 30.5154 24.1642L30.5154 13.3258C30.5154 12.8468 30.6804 12.3873 30.974 12.0485C31.2676 11.7098 31.6658 11.5195 32.081 11.5195Z" fill="white"/>
</svg>
