<svg version="1.1" id="Layer_1" xmlns="http://www.w3.org/2000/svg" xmlns:xlink="http://www.w3.org/1999/xlink" x="0px" y="0px"
	 width="100%" viewBox="0 0 900 900" enable-background="new 0 0 900 900" xml:space="preserve">
<path fill="#FFFFFF" opacity="1.000000" stroke="none" 
	d="
M404.000000,1.000000 
	C435.020905,1.000000 466.041779,1.000000 497.228790,1.373095 
	C498.070312,2.158530 498.709198,2.845703 499.426727,2.941117 
	C507.492859,4.013663 515.650818,4.576242 523.628540,6.093658 
	C537.666016,8.763675 551.706360,11.566509 565.546692,15.093800 
	C594.167603,22.387995 621.807068,32.565544 648.213623,45.804543 
	C661.826904,52.629604 675.230103,59.975330 688.210266,67.930969 
	C699.627014,74.928429 710.546143,82.804352 721.269470,90.846542 
	C730.812134,98.003319 739.899109,105.786438 748.973083,113.543617 
	C756.226807,119.744736 763.518494,125.974060 770.144226,132.819138 
	C778.851746,141.814865 786.778259,151.560822 795.301025,160.742477 
	C808.063354,174.491318 818.505127,189.973572 828.956177,205.428360 
	C834.508118,213.638351 839.748474,222.136490 844.280823,230.941422 
	C852.200623,246.327225 860.007080,261.817413 866.834717,277.704926 
	C872.383545,290.616638 876.692993,304.088257 881.060547,317.471985 
	C884.739502,328.745758 888.479675,340.095703 890.813293,351.689606 
	C894.198669,368.508545 896.325073,385.580200 899.087158,402.528015 
	C899.181580,403.107239 900.338379,403.513275 901.000000,404.000000 
	C901.000000,435.020905 901.000000,466.041779 900.626953,497.228790 
	C899.841553,498.070404 899.164917,498.706299 899.056824,499.427368 
	C897.661621,508.739380 896.408691,518.072815 894.999817,527.382751 
	C891.984131,547.310364 887.741333,566.975891 880.913757,585.960938 
	C874.793091,602.980469 868.730530,620.065674 861.526978,636.637085 
	C855.524536,650.445557 848.471985,663.883972 840.844727,676.875793 
	C832.856201,690.483032 824.093018,703.700989 814.803284,716.459167 
	C806.420654,727.971741 796.995850,738.740417 787.787415,749.631409 
	C781.733887,756.791016 775.599060,763.948059 768.870544,770.454651 
	C759.870483,779.158081 750.583862,787.632568 740.834595,795.477600 
	C726.960083,806.642029 713.166931,818.103149 698.212585,827.678101 
	C681.099915,838.635010 663.170044,848.539062 644.823792,857.281738 
	C627.091309,865.731934 608.544067,872.580139 590.056763,879.313965 
	C560.636963,890.029968 530.061279,895.832642 498.967712,899.076233 
	C498.252716,899.150879 497.653320,900.333923 497.000000,901.000000 
	C466.312439,901.000000 435.624878,901.000000 404.771179,900.626892 
	C400.682312,899.502808 396.769440,898.695496 392.835175,898.010986 
	C378.653015,895.543335 364.312103,893.765686 350.318634,890.496887 
	C335.672150,887.075562 321.320770,882.355591 306.904877,877.990234 
	C282.871277,870.712402 260.140991,860.149719 238.154343,848.310242 
	C220.658340,838.889038 203.644272,828.262817 187.590668,816.560486 
	C171.651031,804.941406 156.945908,791.572083 142.149918,778.461914 
	C133.285095,770.607056 125.241768,761.819092 116.917824,753.363220 
	C114.011177,750.410461 111.270226,747.278687 108.631371,744.081909 
	C104.701653,739.321350 100.808189,734.521240 97.115379,729.576599 
	C89.000229,718.710388 80.482697,708.092590 73.106262,696.738647 
	C60.758057,677.732117 49.783985,657.898376 40.594872,637.130005 
	C37.740322,630.678406 34.450008,624.382446 32.098400,617.752991 
	C26.533154,602.063843 20.684855,586.415405 16.315924,570.378601 
	C12.003949,554.550964 9.198579,538.299438 6.075527,522.167419 
	C4.625914,514.679504 4.027936,507.028473 2.909387,499.471283 
	C2.824706,498.899200 1.661731,498.486694 0.999997,498.000000 
	C1.000000,466.979095 1.000000,435.958221 1.373089,404.771210 
	C2.830892,398.268890 3.885835,391.927429 5.006757,385.597626 
	C7.093375,373.814697 8.623505,361.892151 11.477530,350.296539 
	C15.074169,335.683868 19.577789,321.282623 24.025932,306.893982 
	C31.431265,282.939575 41.749355,260.119446 53.650684,238.175766 
	C63.112953,220.729202 73.714821,203.746674 85.362656,187.683472 
	C96.675346,172.082458 109.755676,157.732056 122.471794,143.192825 
	C128.952881,135.782547 136.239563,129.060699 143.345139,122.217728 
	C149.451996,116.336540 155.472946,110.280762 162.144638,105.089706 
	C175.017593,95.073608 188.223526,85.474861 201.472733,75.955452 
	C220.607941,62.207031 241.367203,51.117481 262.687073,41.353550 
	C279.069061,33.851032 296.282867,28.098846 313.317566,22.111078 
	C324.343384,18.235453 335.543976,14.501086 346.967224,12.193030 
	C365.360840,8.476625 384.005585,6.005994 402.528229,2.913169 
	C403.109100,2.816180 403.513397,1.661562 404.000000,1.000000 
M460.372559,307.962097 
	C450.655731,317.734650 440.944031,327.512329 431.220245,337.277954 
	C425.479004,343.043884 419.720062,348.792236 413.966400,354.545807 
	C407.605743,360.906403 401.270020,367.292267 394.873016,373.616119 
	C385.938782,382.448181 376.892578,391.167755 368.014191,400.055237 
	C358.162323,409.917084 348.243408,419.726562 338.774475,429.948639 
	C335.238220,433.766113 331.823730,438.324982 330.196930,443.165283 
	C325.244720,457.899902 333.415375,468.690125 342.948914,478.255646 
	C351.869720,487.206421 361.733551,495.209076 370.927643,503.898529 
	C377.232971,509.857788 383.041901,516.338867 389.182892,522.476440 
	C395.706665,528.996582 402.434021,535.313477 408.937927,541.852905 
	C416.158356,549.112854 423.180969,556.569153 430.373749,563.857056 
	C438.268799,571.856384 446.261139,579.759766 454.208496,587.707581 
	C468.820587,602.320618 483.679352,616.698059 497.954834,631.632996 
	C507.552155,641.673645 524.954834,644.609497 537.901123,637.273987 
	C554.724426,627.741638 556.270081,601.290649 545.470947,590.094177 
	C535.432190,579.685974 524.793518,569.854309 514.363281,559.826721 
	C508.613617,554.299072 502.648041,548.993286 496.972443,543.392334 
	C493.194794,539.664307 489.909943,535.436890 486.133148,531.707886 
	C479.720551,525.376282 473.042053,519.314941 466.574982,513.037292 
	C462.147247,508.739288 457.916901,504.238708 453.547485,499.879669 
	C447.761414,494.107391 441.910248,488.400452 436.115662,482.636658 
	C430.473175,477.024200 424.811951,471.428833 419.261292,465.726349 
	C414.589813,460.927124 410.065338,455.984802 405.345581,450.967407 
	C410.290314,445.726990 414.527954,441.033936 418.994019,436.569366 
	C422.313232,433.251312 426.091003,430.389313 429.381256,427.045441 
	C438.697968,417.576813 447.748413,407.844757 457.120087,398.431885 
	C485.575684,369.851227 514.135254,341.374084 542.644165,312.846375 
	C543.810364,311.679382 544.964172,310.479309 545.969849,309.175934 
	C554.868652,297.643097 551.761963,275.220825 538.944092,265.944214 
	C525.814087,256.441833 506.446136,259.185028 496.126831,270.420074 
	C489.097504,278.073181 481.678070,285.366638 474.503845,292.888397 
	C469.918671,297.695740 465.462524,302.626190 460.372559,307.962097 
z"/>
<path fill="#000000" opacity="1.000000" stroke="none" 
	d="
M497.468628,901.000000 
	C497.653320,900.333923 498.252716,899.150879 498.967712,899.076233 
	C530.061279,895.832642 560.636963,890.029968 590.056763,879.313965 
	C608.544067,872.580139 627.091309,865.731934 644.823792,857.281738 
	C663.170044,848.539062 681.099915,838.635010 698.212585,827.678101 
	C713.166931,818.103149 726.960083,806.642029 740.834595,795.477600 
	C750.583862,787.632568 759.870483,779.158081 768.870544,770.454651 
	C775.599060,763.948059 781.733887,756.791016 787.787415,749.631409 
	C796.995850,738.740417 806.420654,727.971741 814.803284,716.459167 
	C824.093018,703.700989 832.856201,690.483032 840.844727,676.875793 
	C848.471985,663.883972 855.524536,650.445557 861.526978,636.637085 
	C868.730530,620.065674 874.793091,602.980469 880.913757,585.960938 
	C887.741333,566.975891 891.984131,547.310364 894.999817,527.382751 
	C896.408691,518.072815 897.661621,508.739380 899.056824,499.427368 
	C899.164917,498.706299 899.841553,498.070404 900.626953,497.697449 
	C901.000000,632.260498 901.000000,766.520935 901.000000,901.000000 
	C766.645874,901.000000 632.291565,901.000000 497.468628,901.000000 
z"/>
<path fill="#000000" opacity="1.000000" stroke="none" 
	d="
M0.999997,498.468658 
	C1.661731,498.486694 2.824706,498.899200 2.909387,499.471283 
	C4.027936,507.028473 4.625914,514.679504 6.075527,522.167419 
	C9.198579,538.299438 12.003949,554.550964 16.315924,570.378601 
	C20.684855,586.415405 26.533154,602.063843 32.098400,617.752991 
	C34.450008,624.382446 37.740322,630.678406 40.594872,637.130005 
	C49.783985,657.898376 60.758057,677.732117 73.106262,696.738647 
	C80.482697,708.092590 89.000229,718.710388 97.115379,729.576599 
	C100.808189,734.521240 104.701653,739.321350 108.631371,744.081909 
	C111.270226,747.278687 114.011177,750.410461 116.917824,753.363220 
	C125.241768,761.819092 133.285095,770.607056 142.149918,778.461914 
	C156.945908,791.572083 171.651031,804.941406 187.590668,816.560486 
	C203.644272,828.262817 220.658340,838.889038 238.154343,848.310242 
	C260.140991,860.149719 282.871277,870.712402 306.904877,877.990234 
	C321.320770,882.355591 335.672150,887.075562 350.318634,890.496887 
	C364.312103,893.765686 378.653015,895.543335 392.835175,898.010986 
	C396.769440,898.695496 400.682312,899.502808 404.302490,900.626892 
	C269.739594,901.000000 135.479172,901.000000 1.000000,901.000000 
	C1.000000,766.979187 1.000000,632.958252 0.999997,498.468658 
z"/>
<path fill="#000000" opacity="1.000000" stroke="none" 
	d="
M901.000000,403.531342 
	C900.338379,403.513275 899.181580,403.107239 899.087158,402.528015 
	C896.325073,385.580200 894.198669,368.508545 890.813293,351.689606 
	C888.479675,340.095703 884.739502,328.745758 881.060547,317.471985 
	C876.692993,304.088257 872.383545,290.616638 866.834717,277.704926 
	C860.007080,261.817413 852.200623,246.327225 844.280823,230.941422 
	C839.748474,222.136490 834.508118,213.638351 828.956177,205.428360 
	C818.505127,189.973572 808.063354,174.491318 795.301025,160.742477 
	C786.778259,151.560822 778.851746,141.814865 770.144226,132.819138 
	C763.518494,125.974060 756.226807,119.744736 748.973083,113.543617 
	C739.899109,105.786438 730.812134,98.003319 721.269470,90.846542 
	C710.546143,82.804352 699.627014,74.928429 688.210266,67.930969 
	C675.230103,59.975330 661.826904,52.629604 648.213623,45.804543 
	C621.807068,32.565544 594.167603,22.387995 565.546692,15.093800 
	C551.706360,11.566509 537.666016,8.763675 523.628540,6.093658 
	C515.650818,4.576242 507.492859,4.013663 499.426727,2.941117 
	C498.709198,2.845703 498.070312,2.158530 497.697449,1.373095 
	C632.260376,1.000000 766.520813,1.000000 901.000000,1.000000 
	C901.000000,135.020813 901.000000,269.041748 901.000000,403.531342 
z"/>
<path fill="#000000" opacity="1.000000" stroke="none" 
	d="
M403.531342,1.000000 
	C403.513397,1.661562 403.109100,2.816180 402.528229,2.913169 
	C384.005585,6.005994 365.360840,8.476625 346.967224,12.193030 
	C335.543976,14.501086 324.343384,18.235453 313.317566,22.111078 
	C296.282867,28.098846 279.069061,33.851032 262.687073,41.353550 
	C241.367203,51.117481 220.607941,62.207031 201.472733,75.955452 
	C188.223526,85.474861 175.017593,95.073608 162.144638,105.089706 
	C155.472946,110.280762 149.451996,116.336540 143.345139,122.217728 
	C136.239563,129.060699 128.952881,135.782547 122.471794,143.192825 
	C109.755676,157.732056 96.675346,172.082458 85.362656,187.683472 
	C73.714821,203.746674 63.112953,220.729202 53.650684,238.175766 
	C41.749355,260.119446 31.431265,282.939575 24.025932,306.893982 
	C19.577789,321.282623 15.074169,335.683868 11.477530,350.296539 
	C8.623505,361.892151 7.093375,373.814697 5.006757,385.597626 
	C3.885835,391.927429 2.830892,398.268890 1.373089,404.302551 
	C1.000000,269.739594 1.000000,135.479172 1.000000,1.000000 
	C135.020813,1.000000 269.041748,1.000000 403.531342,1.000000 
z"/>
<path fill="#000000" opacity="1.000000" stroke="none" 
	d="
M460.660522,307.731750 
	C465.462524,302.626190 469.918671,297.695740 474.503845,292.888397 
	C481.678070,285.366638 489.097504,278.073181 496.126831,270.420074 
	C506.446136,259.185028 525.814087,256.441833 538.944092,265.944214 
	C551.761963,275.220825 554.868652,297.643097 545.969849,309.175934 
	C544.964172,310.479309 543.810364,311.679382 542.644165,312.846375 
	C514.135254,341.374084 485.575684,369.851227 457.120087,398.431885 
	C447.748413,407.844757 438.697968,417.576813 429.381256,427.045441 
	C426.091003,430.389313 422.313232,433.251312 418.994019,436.569366 
	C414.527954,441.033936 410.290314,445.726990 405.345581,450.967407 
	C410.065338,455.984802 414.589813,460.927124 419.261292,465.726349 
	C424.811951,471.428833 430.473175,477.024200 436.115662,482.636658 
	C441.910248,488.400452 447.761414,494.107391 453.547485,499.879669 
	C457.916901,504.238708 462.147247,508.739288 466.574982,513.037292 
	C473.042053,519.314941 479.720551,525.376282 486.133148,531.707886 
	C489.909943,535.436890 493.194794,539.664307 496.972443,543.392334 
	C502.648041,548.993286 508.613617,554.299072 514.363281,559.826721 
	C524.793518,569.854309 535.432190,579.685974 545.470947,590.094177 
	C556.270081,601.290649 554.724426,627.741638 537.901123,637.273987 
	C524.954834,644.609497 507.552155,641.673645 497.954834,631.632996 
	C483.679352,616.698059 468.820587,602.320618 454.208496,587.707581 
	C446.261139,579.759766 438.268799,571.856384 430.373749,563.857056 
	C423.180969,556.569153 416.158356,549.112854 408.937927,541.852905 
	C402.434021,535.313477 395.706665,528.996582 389.182892,522.476440 
	C383.041901,516.338867 377.232971,509.857788 370.927643,503.898529 
	C361.733551,495.209076 351.869720,487.206421 342.948914,478.255646 
	C333.415375,468.690125 325.244720,457.899902 330.196930,443.165283 
	C331.823730,438.324982 335.238220,433.766113 338.774475,429.948639 
	C348.243408,419.726562 358.162323,409.917084 368.014191,400.055237 
	C376.892578,391.167755 385.938782,382.448181 394.873016,373.616119 
	C401.270020,367.292267 407.605743,360.906403 413.966400,354.545807 
	C419.720062,348.792236 425.479004,343.043884 431.220245,337.277954 
	C440.944031,327.512329 450.655731,317.734650 460.660522,307.731750 
z"/>
</svg>