<svg width="48" height="48" viewBox="0 0 48 48" fill="none" xmlns="http://www.w3.org/2000/svg">
<path d="M17.8336 12.4616C17.8336 10.9061 18.4516 9.41426 19.5515 8.31434C20.6514 7.21442 22.1432 6.5965 23.6987 6.5965C25.2542 6.5965 26.746 7.21442 27.846 8.31434C28.9459 9.41426 29.5638 10.9061 29.5638 12.4616C29.5638 14.0171 28.9459 15.5089 27.846 16.6088C26.746 17.7087 25.2542 18.3267 23.6987 18.3267C22.1432 18.3267 20.6514 17.7087 19.5515 16.6088C18.4516 15.5089 17.8336 14.0171 17.8336 12.4616ZM23.6987 9.53198C23.314 9.53198 22.933 9.60775 22.5776 9.75498C22.2222 9.90221 21.8992 10.118 21.6272 10.39C21.3551 10.6621 21.1393 10.985 20.9921 11.3405C20.8449 11.6959 20.7691 12.0769 20.7691 12.4616C20.7691 12.8463 20.8449 13.2273 20.9921 13.5827C21.1393 13.9381 21.3551 14.2611 21.6272 14.5331C21.8992 14.8052 22.2222 15.021 22.5776 15.1682C22.933 15.3154 23.314 15.3912 23.6987 15.3912C24.4757 15.3912 25.2208 15.0825 25.7703 14.5331C26.3197 13.9837 26.6283 13.2386 26.6283 12.4616C26.6283 11.6846 26.3197 10.9394 25.7703 10.39C25.2208 9.84063 24.4757 9.53198 23.6987 9.53198ZM32.5051 13.9293C32.5051 13.3511 32.619 12.7785 32.8403 12.2443C33.0616 11.7101 33.3859 11.2247 33.7948 10.8158C34.2037 10.4069 34.6891 10.0826 35.2233 9.86128C35.7576 9.64 36.3301 9.5261 36.9084 9.5261C37.4866 9.5261 38.0592 9.64 38.5934 9.86128C39.1276 10.0826 39.613 10.4069 40.0219 10.8158C40.4308 11.2247 40.7551 11.7101 40.9764 12.2443C41.1977 12.7785 41.3116 13.3511 41.3116 13.9293C41.3116 15.0971 40.8477 16.2171 40.0219 17.0429C39.1962 17.8686 38.0762 18.3325 36.9084 18.3325C35.7406 18.3325 34.6206 17.8686 33.7948 17.0429C32.9691 16.2171 32.5051 15.0971 32.5051 13.9293ZM36.9084 12.4616C36.5191 12.4616 36.1458 12.6162 35.8705 12.8915C35.5953 13.1667 35.4406 13.5401 35.4406 13.9293C35.4406 14.3186 35.5953 14.6919 35.8705 14.9672C36.1458 15.2424 36.5191 15.3971 36.9084 15.3971C37.2976 15.3971 37.671 15.2424 37.9462 14.9672C38.2215 14.6919 38.3761 14.3186 38.3761 13.9293C38.3761 13.5401 38.2215 13.1667 37.9462 12.8915C37.671 12.6162 37.2976 12.4616 36.9084 12.4616ZM10.4891 9.5261C9.32125 9.5261 8.20128 9.99001 7.37551 10.8158C6.54975 11.6415 6.08584 12.7615 6.08584 13.9293C6.08584 15.0971 6.54975 16.2171 7.37551 17.0429C8.20128 17.8686 9.32125 18.3325 10.4891 18.3325C11.6569 18.3325 12.7768 17.8686 13.6026 17.0429C14.4284 16.2171 14.8923 15.0971 14.8923 13.9293C14.8923 12.7615 14.4284 11.6415 13.6026 10.8158C12.7768 9.99001 11.6569 9.5261 10.4891 9.5261ZM9.02132 13.9293C9.02132 13.5401 9.17596 13.1667 9.45121 12.8915C9.72646 12.6162 10.0998 12.4616 10.4891 12.4616C10.8783 12.4616 11.2517 12.6162 11.5269 12.8915C11.8022 13.1667 11.9568 13.5401 11.9568 13.9293C11.9568 14.3186 11.8022 14.6919 11.5269 14.9672C11.2517 15.2424 10.8783 15.3971 10.4891 15.3971C10.0998 15.3971 9.72646 15.2424 9.45121 14.9672C9.17596 14.6919 9.02132 14.3186 9.02132 13.9293ZM12.7435 21.268C12.2269 22.16 11.9555 23.1727 11.9568 24.2035H6.08584V31.5422C6.0856 32.2724 6.26694 32.9911 6.61354 33.6338C6.96014 34.2764 7.46111 34.8228 8.07136 35.2237C8.68161 35.6246 9.38198 35.8675 10.1094 35.9305C10.8369 35.9934 11.5686 35.8745 12.2386 35.5844C12.4558 36.556 12.7963 37.4836 13.2367 38.3496C12.1225 38.7994 10.915 38.9688 9.72013 38.8429C8.52524 38.7171 7.37953 38.2997 6.38362 37.6276C5.38771 36.9554 4.57207 36.049 4.00832 34.988C3.44457 33.9269 3.14996 32.7437 3.15036 31.5422V24.2035C3.15036 23.425 3.45963 22.6783 4.01014 22.1278C4.56065 21.5773 5.3073 21.268 6.08584 21.268H12.7435ZM34.1608 38.3496C35.2749 38.7994 36.4824 38.9688 37.6773 38.8429C38.8722 38.7171 40.0179 38.2997 41.0138 37.6276C42.0097 36.9554 42.8254 36.049 43.3891 34.988C43.9529 33.9269 44.2475 32.7437 44.2471 31.5422V24.2035C44.2471 23.425 43.9378 22.6783 43.3873 22.1278C42.8368 21.5773 42.0901 21.268 41.3116 21.268H34.6539C35.153 22.1311 35.4406 23.1321 35.4406 24.2035H41.3116V31.5422C41.3118 32.2724 41.1305 32.9911 40.7839 33.6338C40.4373 34.2764 39.9363 34.8228 39.3261 35.2237C38.7158 35.6246 38.0154 35.8675 37.288 35.9305C36.5606 35.9934 35.8289 35.8745 35.1588 35.5844C34.9387 36.556 34.6011 37.4836 34.1608 38.3496ZM17.8278 21.2651C17.0492 21.2651 16.3026 21.5744 15.7521 22.1249C15.2015 22.6754 14.8923 23.422 14.8923 24.2006V33.0099C14.8923 35.3456 15.8201 37.5855 17.4716 39.237C19.1231 40.8886 21.3631 41.8164 23.6987 41.8164C26.0343 41.8164 28.2743 40.8886 29.9258 39.237C31.5773 37.5855 32.5051 35.3456 32.5051 33.0099V24.2035C32.5051 23.425 32.1959 22.6783 31.6454 22.1278C31.0949 21.5773 30.3482 21.268 29.5697 21.268H17.8278V21.2651ZM17.8278 24.2006H29.5697V33.0099C29.5697 34.567 28.9511 36.0603 27.8501 37.1613C26.7491 38.2624 25.2558 38.8809 23.6987 38.8809C22.1416 38.8809 20.6483 38.2624 19.5473 37.1613C18.4463 36.0603 17.8278 34.567 17.8278 33.0099V24.2035V24.2006Z" fill="white"/>
</svg>
