<svg width="119" height="119" viewBox="0 0 119 119" fill="none" xmlns="http://www.w3.org/2000/svg">
<path d="M45.195 30.3929C45.195 26.4812 46.749 22.7297 49.515 19.9637C52.281 17.1977 56.0325 15.6437 59.9442 15.6437C63.856 15.6437 67.6075 17.1977 70.3735 19.9637C73.1395 22.7297 74.6934 26.4812 74.6934 30.3929C74.6934 34.3046 73.1395 38.0562 70.3735 40.8222C67.6075 43.5882 63.856 45.1421 59.9442 45.1421C56.0325 45.1421 52.281 43.5882 49.515 40.8222C46.749 38.0562 45.195 34.3046 45.195 30.3929ZM59.9442 23.0257C58.9768 23.0257 58.0188 23.2163 57.1249 23.5865C56.2311 23.9567 55.4189 24.4994 54.7348 25.1835C54.0507 25.8676 53.5081 26.6798 53.1378 27.5736C52.7676 28.4674 52.577 29.4254 52.577 30.3929C52.577 31.3604 52.7676 32.3184 53.1378 33.2122C53.5081 34.1061 54.0507 34.9182 54.7348 35.6023C55.4189 36.2864 56.2311 36.8291 57.1249 37.1993C58.0188 37.5696 58.9768 37.7601 59.9442 37.7601C61.8981 37.7601 63.772 36.9839 65.1536 35.6023C66.5353 34.2207 67.3114 32.3468 67.3114 30.3929C67.3114 28.439 66.5353 26.5651 65.1536 25.1835C63.772 23.8019 61.8981 23.0257 59.9442 23.0257ZM82.0901 34.0839C82.0901 32.6298 82.3766 31.1899 82.933 29.8465C83.4895 28.503 84.3051 27.2824 85.3333 26.2541C86.3616 25.2259 87.5822 24.4103 88.9257 23.8538C90.2691 23.2974 91.709 23.0109 93.1631 23.0109C94.6172 23.0109 96.0571 23.2974 97.4006 23.8538C98.744 24.4103 99.9647 25.2259 100.993 26.2541C102.021 27.2824 102.837 28.503 103.393 29.8465C103.95 31.1899 104.236 32.6298 104.236 34.0839C104.236 37.0206 103.069 39.8371 100.993 41.9137C98.9163 43.9903 96.0998 45.1569 93.1631 45.1569C90.2264 45.1569 87.4099 43.9903 85.3333 41.9137C83.2568 39.8371 82.0901 37.0206 82.0901 34.0839ZM93.1631 30.3929C92.1842 30.3929 91.2454 30.7818 90.5532 31.474C89.861 32.1662 89.4721 33.105 89.4721 34.0839C89.4721 35.0628 89.861 36.0016 90.5532 36.6938C91.2454 37.386 92.1842 37.7749 93.1631 37.7749C94.142 37.7749 95.0808 37.386 95.773 36.6938C96.4652 36.0016 96.8541 35.0628 96.8541 34.0839C96.8541 33.105 96.4652 32.1662 95.773 31.474C95.0808 30.7818 94.142 30.3929 93.1631 30.3929ZM26.7254 23.0109C23.7886 23.0109 20.9722 24.1776 18.8956 26.2541C16.819 28.3307 15.6524 31.1472 15.6524 34.0839C15.6524 37.0206 16.819 39.8371 18.8956 41.9137C20.9722 43.9903 23.7886 45.1569 26.7254 45.1569C29.6621 45.1569 32.4785 43.9903 34.5551 41.9137C36.6317 39.8371 37.7983 37.0206 37.7983 34.0839C37.7983 31.1472 36.6317 28.3307 34.5551 26.2541C32.4785 24.1776 29.6621 23.0109 26.7254 23.0109ZM23.0344 34.0839C23.0344 33.105 23.4232 32.1662 24.1154 31.474C24.8076 30.7818 25.7464 30.3929 26.7254 30.3929C27.7043 30.3929 28.6431 30.7818 29.3353 31.474C30.0275 32.1662 30.4163 33.105 30.4163 34.0839C30.4163 35.0628 30.0275 36.0016 29.3353 36.6938C28.6431 37.386 27.7043 37.7749 26.7254 37.7749C25.7464 37.7749 24.8076 37.386 24.1154 36.6938C23.4232 36.0016 23.0344 35.0628 23.0344 34.0839ZM32.3947 52.5388C31.0955 54.7819 30.413 57.3287 30.4163 59.9208H15.6524V78.3757C15.6518 80.2119 16.1078 82.0194 16.9794 83.6355C17.851 85.2516 19.1108 86.6256 20.6455 87.6338C22.1801 88.642 23.9413 89.2528 25.7707 89.4111C27.6 89.5694 29.44 89.2703 31.125 88.5407C31.6713 90.9842 32.5276 93.3169 33.6349 95.4945C30.8332 96.6258 27.7965 97.0518 24.7917 96.7352C21.7868 96.4187 18.9057 95.3691 16.4012 93.6789C13.8968 91.9886 11.8457 89.7092 10.428 87.041C9.01028 84.3727 8.26941 81.3972 8.27042 78.3757V59.9208C8.27042 57.963 9.04816 56.0854 10.4325 54.701C11.8169 53.3166 13.6946 52.5388 15.6524 52.5388H32.3947ZM86.2536 95.4945C89.0553 96.6258 92.0919 97.0518 95.0968 96.7352C98.1016 96.4187 100.983 95.3691 103.487 93.6789C105.992 91.9886 108.043 89.7092 109.46 87.041C110.878 84.3727 111.619 81.3972 111.618 78.3757V59.9208C111.618 57.963 110.84 56.0854 109.456 54.701C108.072 53.3166 106.194 52.5388 104.236 52.5388H87.4938C88.7487 54.7091 89.4721 57.2264 89.4721 59.9208H104.236V78.3757C104.237 80.2119 103.781 82.0194 102.909 83.6355C102.037 85.2516 100.778 86.6256 99.243 87.6338C97.7084 88.642 95.9471 89.2528 94.1178 89.4111C92.2885 89.5694 90.4485 89.2703 88.7635 88.5407C88.2098 90.9842 87.3609 93.3169 86.2536 95.4945ZM45.1803 52.5315C43.2225 52.5315 41.3448 53.3092 39.9604 54.6936C38.5761 56.078 37.7983 57.9556 37.7983 59.9134V82.0667C37.7983 87.9402 40.1315 93.5731 44.2847 97.7263C48.4379 101.879 54.0708 104.213 59.9442 104.213C65.8177 104.213 71.4506 101.879 75.6038 97.7263C79.7569 93.5731 82.0901 87.9402 82.0901 82.0667V59.9208C82.0901 57.963 81.3124 56.0854 79.928 54.701C78.5436 53.3166 76.666 52.5388 74.7082 52.5388H45.1803V52.5315ZM45.1803 59.9134H74.7082V82.0667C74.7082 85.9824 73.1527 89.7376 70.3839 92.5064C67.6151 95.2752 63.8599 96.8307 59.9442 96.8307C56.0286 96.8307 52.2733 95.2752 49.5045 92.5064C46.7358 89.7376 45.1803 85.9824 45.1803 82.0667V59.9208V59.9134Z" fill="#FDC92F"/>
</svg>
