<svg width="48" height="48" viewBox="0 0 48 48" fill="none" xmlns="http://www.w3.org/2000/svg">
<path d="M8.14294 6.55214V41.7779H11.0784V30.036H40.4332V6.55214H8.14294ZM11.0784 9.48762H15.4816V13.8908H19.8849V9.48762H24.2881V13.8908H28.6913V9.48762H33.0945V13.8908H37.4977V18.2941H33.0945V22.6973H37.4977V27.1005H33.0945V22.6973H28.6913V27.1005H24.2881V22.6973H19.8849V27.1005H15.4816V22.6973H11.0784V18.2941H15.4816V13.8908H11.0784V9.48762ZM15.4816 18.2941V22.6973H19.8849V18.2941H15.4816ZM19.8849 18.2941H24.2881V13.8908H19.8849V18.2941ZM24.2881 18.2941V22.6973H28.6913V18.2941H24.2881ZM28.6913 18.2941H33.0945V13.8908H28.6913V18.2941Z" fill="white"/>
</svg>
