<svg width="119" height="119" viewBox="0 0 119 119" fill="none" xmlns="http://www.w3.org/2000/svg">
<path d="M18.9319 14.7639V103.348H26.3139V73.8197H100.134V14.7639H18.9319ZM26.3139 22.1459H37.3869V33.2188H48.4598V22.1459H59.5328V33.2188H70.6057V22.1459H81.6787V33.2188H92.7517V44.2918H81.6787V55.3648H92.7517V66.4377H81.6787V55.3648H70.6057V66.4377H59.5328V55.3648H48.4598V66.4377H37.3869V55.3648H26.3139V44.2918H37.3869V33.2188H26.3139V22.1459ZM37.3869 44.2918V55.3648H48.4598V44.2918H37.3869ZM48.4598 44.2918H59.5328V33.2188H48.4598V44.2918ZM59.5328 44.2918V55.3648H70.6057V44.2918H59.5328ZM70.6057 44.2918H81.6787V33.2188H70.6057V44.2918Z" fill="#FDC92F"/>
</svg>
